<svg viewBox="0 0 370 106.87776384803985" preserveAspectRatio="xMidYMid meet" class="css-88gl6m" id="ebhfcfhd"><defs id="SvgjsDefs1378"></defs><g id="SvgjsG1379" featurekey="T16ghp-0" transform="matrix(0.11349449866174303,0,0,0.11349449866174303,-6.75292267037371,-3.302692335560783)" fill="#fff"><g xmlns="http://www.w3.org/2000/svg"><path d="M146.6,312.2l273.4-157.9h0c7.6,3.1,15.8,4.8,24.4,4.8c35.8,0,65-29.2,65-65c0-35.8-29.2-65-65-65   c-35.8,0-64.8,29-65,64.7v0L97,256.9c-23.1,13.4-37.5,38.3-37.5,65.1v347.2c0,26.7,14.4,51.7,37.6,65.1l318,183.6   c4.4,2.5,9.4,3.9,14.4,3.9c5,0,10-1.3,14.4-3.9c9-5.2,14.4-14.6,14.4-25v-9.3c0-15.2-8.2-29.3-21.3-36.9L146.6,679   c-8.9-5.2-14.5-14.8-14.5-25.1V337.3C132.1,327,137.7,317.3,146.6,312.2z M405.4,78.9L405.4,78.9c6.1-15.7,21.3-26.7,39.1-26.7   c2.2,0,4.3,0.2,6.4,0.5h0c2.6,0.4,5.1,1,7.4,1.9c16.4,5.7,28.1,21.3,28.1,39.6c0,20.1-14.2,37-33.1,41c-2.8,0.6-5.8,0.9-8.8,0.9   c-23.2,0-42-18.8-42-42C402.5,88.7,403.6,83.6,405.4,78.9z"></path><path d="M903.6,276.8L585.4,93.1c-4.5-2.6-9.5-3.9-14.6-3.9c-5.1,0-10.1,1.4-14.6,3.9c-9.1,5.3-14.6,14.7-14.6,25.3   v12.9c0,12.6,6.8,24.3,17.7,30.6L854,332c8.6,4.9,13.9,14.1,13.9,24v318c0,9.9-5.3,19.1-13.9,24l-266.4,150   c-8.9-4.6-19-7.2-29.6-7.2c-35.8,0-65,29.2-65,65c0,35.8,29.2,65,65,65c32.5,0,59.5-23.9,64.3-55.1l281.4-162.5   c22.8-13.2,36.9-37.6,36.9-63.9V340.7C940.5,314.4,926.4,289.9,903.6,276.8z M587,936.1c-4.9,4.7-10.8,8.2-17.5,10.1   c-3.7,1.1-7.6,1.6-11.6,1.6c-0.4,0-0.9,0-1.3,0c-22.6-0.7-40.7-19.2-40.7-41.9c0-23.2,18.8-42,42-42c2.2,0,4.4,0.2,6.5,0.5   c20.1,3.1,35.5,20.5,35.5,41.5C599.9,917.8,595,928.5,587,936.1z"></path><path d="M689.4,551L196.9,681.6c-8.6,2.3-16.8-13.8-12-23.6l11.3-23.3c9-18.6,22.7-31,38.9-35.3l488.9-129.6   c8.6-2.3,16.8,13.8,12,23.6l-13.2,27.4C715,536.7,703.3,547.4,689.4,551z"></path><path d="M693,669.3l-304.9,80.8c-5.3,1.4-12.1-15-10-24.2l5.1-21.6c4-17.3,11.7-28.1,21.8-30.7l302.7-80.2   c5.3-1.4,12.1,15,10,24.2l-5.9,25.4C708.2,657.8,701.6,667,693,669.3z"></path><path d="M614.1,358.5l-304.9,80.8c-5.3,1.4-12.1-15-10-24.2l5.1-21.6c4-17.3,11.7-28.1,21.8-30.7l302.7-80.2   c5.3-1.4,12.1,15,10,24.2l-5.9,25.4C629.2,347,622.7,356.2,614.1,358.5z"></path><path d="M778,418.1L285.6,548.6c-8.6,2.3-16.8-13.8-12-23.6l11.3-23.3c9-18.6,22.7-31,38.9-35.3l488.9-129.6   c8.6-2.3,16.8,13.8,12,23.6l-13.2,27.4C803.7,403.8,792,414.4,778,418.1z"></path></g></g><g id="SvgjsG1380" featurekey="Fok8m0-0" transform="matrix(3.2400205823573125,0,0,3.2400205823573125,115.52877431548039,11.467084493661751)" fill="#fff"><path d="M8.12 5.720000000000001 c3.0266 0 4.54 1.1733 4.54 3.52 c0 1.3467 -0.64666 2.3466 -1.94 3 c0.88 0.25334 1.5367 0.69668 1.97 1.33 s0.65 1.3967 0.65 2.29 c0 1.28 -0.46334 2.29 -1.39 3.03 s-2.1434 1.11 -3.65 1.11 l-6.92 0 l0 -14.28 l6.74 0 z M7.72 11.5 c1.2667 0 1.9 -0.56666 1.9 -1.7 c0 -1.0933 -0.70666 -1.64 -2.12 -1.64 l-2.98 0 l0 3.34 l3.2 0 z M7.9 17.56 c1.5333 0 2.3 -0.62666 2.3 -1.88 c0 -1.36 -0.74666 -2.04 -2.24 -2.04 l-3.44 0 l0 3.92 l3.38 0 z M18.08 5.720000000000001 l0 14.28 l-2.84 0 l0 -14.28 l2.84 0 z M23.240000000000002 5.720000000000001 l0 2.34 l-2.84 0 l0 -2.34 l2.84 0 z M23.240000000000002 9.66 l0 10.34 l-2.84 0 l0 -10.34 l2.84 0 z M31.42 9.38 c1.32 0 2.2766 0.33338 2.87 1 s0.89 1.7267 0.89 3.18 l0 6.44 l-2.84 0 l0 -5.86 c0 -0.85334 -0.13666 -1.4867 -0.41 -1.9 s-0.74334 -0.62 -1.41 -0.62 c-0.77334 0 -1.3333 0.23334 -1.68 0.7 s-0.52 1.2333 -0.52 2.3 l0 5.38 l-2.84 0 l0 -10.34 l2.7 0 l0 1.44 l0.06 0 c0.70666 -1.1467 1.7667 -1.72 3.18 -1.72 z M40.440000000000005 5.720000000000001 l0 7.66 l3.58 -3.72 l3.36 0 l-3.9 3.8 l4.34 6.54 l-3.44 0 l-2.84 -4.62 l-1.1 1.06 l0 3.56 l-2.84 0 l0 -14.28 l2.84 0 z M53.84000000000001 9.38 c1.6533 0 2.96 0.50334 3.92 1.51 s1.44 2.3234 1.44 3.95 c0 1.64 -0.49 2.9566 -1.47 3.95 s-2.2766 1.49 -3.89 1.49 c-1.64 0 -2.94 -0.50334 -3.9 -1.51 s-1.44 -2.3166 -1.44 -3.93 c0 -1.6667 0.49 -2.9934 1.47 -3.98 s2.27 -1.48 3.87 -1.48 z M51.34000000000001 14.84 c0 1.0533 0.21334 1.8666 0.64 2.44 s1.0467 0.86 1.86 0.86 c0.84 0 1.47 -0.29334 1.89 -0.88 s0.63 -1.3933 0.63 -2.42 c0 -1.0667 -0.21666 -1.8867 -0.65 -2.46 s-1.0633 -0.86 -1.89 -0.86 c-0.8 0 -1.4133 0.28666 -1.84 0.86 s-0.64 1.3933 -0.64 2.46 z M67.08000000000001 9.38 c0.24 0 0.44668 0.03334 0.62002 0.1 l0 2.64 c-0.30666 -0.06666 -0.64666 -0.1 -1.02 -0.1 c-1.8667 0 -2.8 1.1067 -2.8 3.32 l0 4.66 l-2.84 0 l0 -10.34 l2.7 0 l0 1.92 l0.04 0 c0.28 -0.66666 0.72334 -1.2 1.33 -1.6 s1.2633 -0.6 1.97 -0.6 z M78.54 5.720000000000001 l0 14.28 l-2.7 0 l0 -1.32 l-0.04 0 c-0.61334 1.0667 -1.66 1.6 -3.14 1.6 c-1.4267 0 -2.5566 -0.52 -3.39 -1.56 s-1.25 -2.3666 -1.25 -3.98 c0 -1.5733 0.42334 -2.86 1.27 -3.86 s1.95 -1.5 3.31 -1.5 c0.62666 0 1.2167 0.13 1.77 0.39 s0.98334 0.64334 1.29 1.15 l0.04 0 l0 -5.2 l2.84 0 z M70.86000000000001 14.82 c0 0.94666 0.22332 1.7367 0.66998 2.37 s1.0567 0.95 1.83 0.95 c0.81334 0 1.4233 -0.29666 1.83 -0.89 s0.61 -1.41 0.61 -2.45 s-0.21334 -1.8467 -0.64 -2.42 s-1.0333 -0.86 -1.82 -0.86 c-0.81334 0 -1.43 0.3 -1.85 0.9 s-0.63 1.4 -0.63 2.4 z"></path></g></svg>